Coordinates
version=1
nRows=14
nColumns=40
inDegrees=yes

Units are S.I. units (second, meters, Newtons, ...)
If the header above contains a line with 'inDegrees', this indicates whether rotational values are in degrees (yes) or radians (no).

endheader
time	pelvis_tilt	pelvis_list	pelvis_rotation	pelvis_tx	pelvis_ty	pelvis_tz	hip_flexion_r	hip_adduction_r	hip_rotation_r	knee_angle_r	knee_angle_r_beta	ankle_angle_r	subtalar_angle_r	mtp_angle_r	hip_flexion_l	hip_adduction_l	hip_rotation_l	knee_angle_l	knee_angle_l_beta	ankle_angle_l	subtalar_angle_l	mtp_angle_l	lumbar_extension	lumbar_bending	lumbar_rotation	arm_flex_r	arm_add_r	arm_rot_r	elbow_flex_r	pro_sup_r	wrist_flex_r	wrist_dev_r	arm_flex_l	arm_add_l	arm_rot_l	elbow_flex_l	pro_sup_l	wrist_flex_l	wrist_dev_l
      1.06000000	     -2.58094609	    -11.57657120	     89.89350655	      0.18657973	      0.89450235	     -0.15704563	     45.48914218	     -1.87259028	     -4.22411307	     13.25925327	      0.23141763	     -0.74412189	      0.00000000	      0.00000000	    -14.98416091	      4.70785307	      0.83512713	      8.23977989	      0.14381129	      2.49559810	      0.00000000	      0.00000000	      2.02478388	     -1.30828975	     -0.77190912	      0.00000000	      0.00000000	      0.00000000	      0.00000000	      0.00000000	      0.00000000	      0.00000000	      0.00000000	      0.00000000	      0.00000000	      0.00000000	      0.00000000	      0.00000000	      0.00000000
      1.07000000	     -1.88388699	    -11.80967686	     89.89412418	      0.18812123	      0.89334624	     -0.18017505	     46.00471649	     -1.26100672	     -4.71699827	     15.76937815	      0.27522757	     -3.29048702	      0.00000000	      0.00000000	    -14.45473788	      3.75102109	     -0.44870624	     10.91083700	      0.19043003	      0.00728851	      0.00000000	      0.00000000	      2.48456188	     -0.43142145	     -0.55417720	      0.00000000	      0.00000000	      0.00000000	      0.00000000	      0.00000000	      0.00000000	      0.00000000	      0.00000000	      0.00000000	      0.00000000	      0.00000000	      0.00000000	      0.00000000	      0.00000000
      1.08000000	     -1.14009100	    -11.81711346	     89.89329380	      0.18969701	      0.89336156	     -0.20338895	     46.20404517	     -0.66048708	     -5.37489215	     18.40239120	      0.32118232	     -5.55660004	      0.00000000	     -0.00000000	    -13.86405797	      2.70113089	     -1.57389141	     13.92004054	      0.24295054	     -3.09743867	      0.00000000	     -0.00000000	      2.68082554	      0.50041290	     -0.36329808	      0.00000000	     -0.00000000	      0.00000000	      0.00000000	      0.00000000	     -0.00000000	      0.00000000	      0.00000000	      0.00000000	      0.00000000	      0.00000000	      0.00000000	      0.00000000	      0.00000000
      1.09000000	     -0.29245425	    -11.75367842	     89.88907663	      0.19147104	      0.89435796	     -0.22657363	     46.12259260	      0.07393932	     -5.82433077	     20.84895204	      0.36388286	     -7.32423074	      0.00000000	      0.00000000	    -12.97087766	      1.46099211	     -2.72832556	     17.38203853	      0.30337380	     -6.85050144	      0.00000000	      0.00000000	      2.78216436	      1.49947559	     -0.10920522	      0.00000000	      0.00000000	      0.00000000	      0.00000000	      0.00000000	      0.00000000	      0.00000000	      0.00000000	      0.00000000	      0.00000000	      0.00000000	      0.00000000	      0.00000000	      0.00000000
      1.10000000	      0.73689762	    -11.67523594	     89.88131165	      0.19347233	      0.89616868	     -0.24977659	     45.79523481	      1.05760034	     -6.09246934	     23.02182814	      0.40180670	     -8.40023483	      0.00000000	      0.00000000	    -11.77295810	     -0.03472832	     -3.84784338	     21.20109896	      0.37002898	    -11.30479218	      0.00000000	      0.00000000	      2.89420993	      2.71851010	      0.14072072	      0.00000000	      0.00000000	      0.00000000	      0.00000000	      0.00000000	      0.00000000	      0.00000000	      0.00000000	      0.00000000	      0.00000000	      0.00000000	      0.00000000	      0.00000000	      0.00000000
      1.11000000	      1.68282944	    -11.40250707	     89.87148732	      0.19550184	      0.89894388	     -0.27263928	     45.10995358	      1.96404577	     -6.40748749	     25.00909855	      0.43649111	     -8.62376545	      0.00000000	      0.00000000	    -10.42100985	     -1.48284681	     -4.63779231	     25.41106712	      0.44350679	    -15.75859003	      0.00000000	      0.00000000	      2.71586907	      3.79424647	      0.39401635	      0.00000000	      0.00000000	      0.00000000	      0.00000000	      0.00000000	      0.00000000	      0.00000000	      0.00000000	      0.00000000	      0.00000000	      0.00000000	      0.00000000	      0.00000000	      0.00000000
      1.12000000	      2.68305969	    -11.13434819	     89.85906227	      0.19768994	      0.90238095	     -0.29524062	     44.12338277	      3.02844605	     -6.51405675	     26.47553638	      0.46208528	     -8.19682048	      0.00000000	      0.00000000	     -8.76783941	     -2.97875475	     -5.03851896	     29.87792529	      0.52146817	    -20.17018263	      0.00000000	      0.00000000	      2.53987912	      4.90293352	      0.68774363	      0.00000000	      0.00000000	      0.00000000	      0.00000000	      0.00000000	      0.00000000	      0.00000000	      0.00000000	      0.00000000	      0.00000000	      0.00000000	      0.00000000	      0.00000000	      0.00000000
      1.13000000	      3.57741629	    -10.81385411	     89.84348829	      0.19987760	      0.90637189	     -0.31741006	     42.89466436	      4.01083878	     -6.69486173	     27.62274034	      0.48210777	     -7.30803519	      0.00000000	      0.00000000	     -6.89735599	     -4.33229626	     -5.11086884	     34.50235670	      0.60217972	    -23.82298807	      0.00000000	      0.00000000	      2.25978561	      5.85455580	      0.96250482	      0.00000000	      0.00000000	      0.00000000	      0.00000000	      0.00000000	      0.00000000	      0.00000000	      0.00000000	      0.00000000	      0.00000000	      0.00000000	      0.00000000	      0.00000000	      0.00000000
      1.14000000	      4.37445818	    -10.57265919	     89.82847691	      0.20208847	      0.91075241	     -0.33907614	     41.46263063	      4.99634027	     -6.67278375	     28.21211507	      0.49239430	     -6.14581095	      0.00000000	      0.00000000	     -4.70499080	     -5.53202500	     -4.91541771	     39.14930852	      0.68328433	    -26.47677778	      0.00000000	      0.00000000	      2.03420006	      6.66378758	      1.29019731	      0.00000000	      0.00000000	      0.00000000	      0.00000000	      0.00000000	      0.00000000	      0.00000000	      0.00000000	      0.00000000	      0.00000000	      0.00000000	      0.00000000	      0.00000000	      0.00000000
      1.15000000	      5.03071044	    -10.34283746	     89.80613133	      0.20423819	      0.91546392	     -0.36035939	     39.84499782	      5.85693588	     -6.73128493	     28.43431801	      0.49627247	     -4.86201937	     -0.00000000	      0.00000000	     -2.34457161	     -6.51767679	     -4.54818161	     43.63503357	      0.76157501	    -27.86672398	      0.00000000	     -0.00000000	      1.80334178	      7.28941204	      1.58784025	      0.00000000	      0.00000000	     -0.00000000	      0.00000000	      0.00000000	     -0.00000000	     -0.00000000	      0.00000000	      0.00000000	     -0.00000000	      0.00000000	      0.00000000	     -0.00000000	      0.00000000
      1.16000000	      5.51955558	    -10.22762043	     89.78739163	      0.20635256	      0.92034153	     -0.38119464	     38.13233350	      6.61710151	     -6.59752582	     28.21641725	      0.49246938	     -3.61168816	      0.00000000	      0.00000000	      0.26437061	     -7.25731576	     -4.07544917	     47.83156708	      0.83481833	    -27.83913994	     -0.00000000	     -0.00000000	      1.68064910	      7.69575605	      1.89129200	      0.00000000	      0.00000000	      0.00000000	      0.00000000	      0.00000000	     -0.00000000	     -0.00000000	     -0.00000000	     -0.00000000	     -0.00000000	      0.00000000	      0.00000000	      0.00000000	     -0.00000000
      1.17000000	      5.80963576	    -10.16519720	     89.76847517	      0.20832552	      0.92542363	     -0.40174996	     36.29069637	      7.20169590	     -6.36498626	     27.63505057	      0.48232262	     -2.41847007	      0.00000000	      0.00000000	      2.97885884	     -7.72467602	     -3.59960749	     51.56871712	      0.90004390	    -26.58906251	      0.00000000	      0.00000000	      1.62301890	      7.85138287	      2.20921028	      0.00000000	      0.00000000	      0.00000000	      0.00000000	      0.00000000	      0.00000000	      0.00000000	      0.00000000	      0.00000000	      0.00000000	      0.00000000	      0.00000000	      0.00000000	      0.00000000
      1.18000000	      5.89264369	    -10.19202069	     89.75639020	      0.21022634	      0.93053770	     -0.42200645	     34.41027899	      7.59092037	     -6.02261090	     26.77007150	      0.46722589	     -1.40452385	      0.00000000	     -0.00000000	      5.82151784	     -7.93976668	     -3.19858468	     54.78724346	      0.95621779	    -24.26977279	     -0.00000000	     -0.00000000	      1.65377619	      7.76447742	      2.50373640	     -0.00000000	      0.00000000	     -0.00000000	      0.00000000	      0.00000000	      0.00000000	     -0.00000000	      0.00000000	     -0.00000000	     -0.00000000	      0.00000000	      0.00000000	      0.00000000	     -0.00000000
      1.19000000	      5.80388522	    -10.29402477	     89.75172986	      0.21195750	      0.93563907	     -0.44207697	     32.51929858	      7.77264976	     -5.68976387	     25.71182215	      0.44875595	     -0.56577098	      0.00000000	      0.00000000	      8.72583189	     -7.91905924	     -2.87464238	     57.40317292	      1.00187437	    -21.31925463	      0.00000000	      0.00000000	      1.78040154	      7.47607293	      2.73247359	      0.00000000	      0.00000000	      0.00000000	      0.00000000	      0.00000000	      0.00000000	      0.00000000	      0.00000000	      0.00000000	      0.00000000	      0.00000000	      0.00000000	      0.00000000	      0.00000000
